# xmcd CD database file
#
# Track frame offsets:
#	150
#	18103
#	34768
#	54163
#	69078
#	81741
#	98253
#	111546
#	126858
#	138586
#	153049
#	170110
#	186401
#	201631
#	217477
#	229940
#	243641
#	256394
#	269178
#	283712
#	298553
#
# Disc length: 4199 seconds
#
# Revision: 0
# Processed by: cddbd v1.4PL0 Copyright (c) Steve Scherf et al.
# Submitted via: CDex 1.50Beta7
#
DISCID=4d106515
DTITLE=Tião Carreiro e Pardinho - Sucessos de Ouro (As Romanticas)
DYEAR=1900
DGENRE=Country
TTITLE0=Boiadeiro De Palavra
TTITLE1=Ferreirinha
TTITLE2=Golpe De Mestre
TTITLE3=Pai João
TTITLE4=Retrato Do Boi Soberano
TTITLE5=Terra Roxa
TTITLE6=Rei Do Gado
TTITLE7=Três Cuiabanas
TTITLE8=A Viola e o Violeiro
TTITLE9=Boi Soberano
TTITLE10=Catimbaú
TTITLE11=Preto Fugido
TTITLE12=Irmão Do Ferreirinha
TTITLE13=Jogador De Baralho
TTITLE14=Minas Gerais
TTITLE15=O Mineiro e o Italiano
TTITLE16=Pretinho Aleijado
TTITLE17=Preto Velho
TTITLE18=Travessia Do Araguaia
TTITLE19=Urutu Cruzeiro
TTITLE20=Ana Rosa
EXTD=
EXTT0=
EXTT1=
EXTT2=
EXTT3=
EXTT4=
EXTT5=
EXTT6=
EXTT7=
EXTT8=
EXTT9=
EXTT10=
EXTT11=
EXTT12=
EXTT13=
EXTT14=
EXTT15=
EXTT16=
EXTT17=
EXTT18=
EXTT19=
EXTT20=
PLAYORDER=
